<svg xmlns="http://www.w3.org/2000/svg" viewBox="0 0 240 180" role="img" aria-labelledby="title">
  <title id="title">餐盘上的蔬菜</title>
  <rect width="240" height="180" rx="28" fill="#fff4d6"/>
  <ellipse cx="120" cy="104" rx="78" ry="47" fill="#f0e7d2" stroke="#6f8163" stroke-width="7"/>
  <ellipse cx="120" cy="99" rx="60" ry="32" fill="#fffdf6"/>
  <circle cx="103" cy="92" r="19" fill="#e75b45"/>
  <path d="M101 68c9 0 13 8 13 8-10 4-18-1-18-1s0-7 5-7Z" fill="#5f9b6d"/>
  <path d="M126 114c6-28 17-37 32-34 6 16-4 33-32 34Z" fill="#77aa70"/>
  <path d="M76 116c5-23 15-30 28-27 3 14-6 26-28 27Z" fill="#f5c85b"/>
  <path d="M63 145c36 17 84 17 115 0" fill="none" stroke="#d0b989" stroke-width="5" stroke-linecap="round"/>
</svg>
